<svg xmlns="http://www.w3.org/2000/svg" width="16" height="26"><path fill="#fff" d="M.12 13.957c-.665 1.305.09 1.93 1.81 2.995 1.462.904 3.483 1.234 4.78 1.366l-5.114 4.92c-1.489 1.426.908 3.715 2.395 2.319l4.027-3.884a765.44 765.44 0 014.027 3.89c1.488 1.401 3.883-.868 2.411-2.32l-5.13-4.92c1.314-.132 3.304-.481 4.749-1.365l-.001-.002c1.72-1.071 2.474-1.694 1.82-3-.396-.74-1.462-1.36-2.88-.289 0 0-1.917 1.468-5.008 1.468-3.092 0-5.007-1.468-5.007-1.468-1.418-1.076-2.489-.451-2.88.29z"/><path fill="#fff" d="M1.15 6.584C1.15 2.944 4.227 0 7.996 0c3.767 0 6.844 2.944 6.844 6.584 0 3.625-3.077 6.57-6.844 6.57-3.77 0-6.846-2.945-6.846-6.57zm3.484 0c0 1.781 1.51 3.234 3.362 3.234 1.851 0 3.361-1.453 3.361-3.234 0-1.796-1.51-3.248-3.361-3.248-1.853 0-3.363 1.451-3.362 3.248z"/></svg>