<svg xmlns="http://www.w3.org/2000/svg" width="13" height="26"><path fill="#fff" d="M.415 13.848h2.821V25.58c0 .231.186.419.415.419h4.783c.23 0 .415-.188.415-.42V13.904h3.243c.211 0 .389-.16.413-.372l.492-4.32a.422.422 0 00-.102-.326.413.413 0 00-.31-.14H8.85V6.037c0-.816.434-1.23 1.293-1.23h2.442c.23 0 .415-.188.415-.42V.422a.417.417 0 00-.415-.419H9.219A3.272 3.272 0 009.065 0C8.48 0 6.45.116 4.847 1.606c-1.776 1.652-1.53 3.63-1.47 3.972v3.166H.415a.417.417 0 00-.415.42v4.264c0 .232.186.42.415.42z"/></svg>