<svg xmlns="http://www.w3.org/2000/svg" width="26" height="26"><path fill="#fff" d="M18.825 0C22.78 0 26 3.219 26 7.175v11.65C26 22.78 22.781 26 18.825 26H7.175C3.219 26 0 22.781 0 18.825V7.175C0 3.22 3.219 0 7.175 0zm4.868 18.825V7.175a4.874 4.874 0 00-4.868-4.868H7.175a4.874 4.874 0 00-4.868 4.868v11.65a4.874 4.874 0 004.868 4.868h11.65a4.874 4.874 0 004.868-4.868z"/><path fill="#fff" d="M19.7 13a6.707 6.707 0 01-6.7 6.699 6.707 6.707 0 01-6.7-6.7A6.707 6.707 0 0113 6.3c3.694 0 6.7 3.005 6.7 6.7zm-2.308 0A4.398 4.398 0 0013 8.606a4.398 4.398 0 00-4.393 4.392A4.398 4.398 0 0013 17.392a4.398 4.398 0 004.392-4.393zm2.59-8.66c-.445 0-.881.18-1.195.495a1.7 1.7 0 00-.497 1.197c0 .444.181.88.497 1.196.313.314.75.495 1.195.495.446 0 .88-.181 1.196-.495.315-.315.495-.752.495-1.196 0-.446-.18-.883-.495-1.197a1.699 1.699 0 00-1.196-.495z"/></svg>