<svg xmlns="http://www.w3.org/2000/svg" width="24" height="24"><defs><clipPath id="a"><path fill="#fff" d="M10.419 20.837c5.754 0 10.418-4.664 10.418-10.418S16.173 0 10.42 0 0 4.665 0 10.419c0 5.754 4.665 10.418 10.419 10.418z"/></clipPath></defs><path d="M17.051 16.769l5.968 5.968c.366.365.498.827.295 1.03-.204.204-.666.072-1.032-.294l-5.967-5.968z"/><path fill="none" stroke="#000" stroke-miterlimit="20" stroke-width="2" d="M10.419 20.837c5.754 0 10.418-4.664 10.418-10.418S16.173 0 10.42 0 0 4.665 0 10.419c0 5.754 4.665 10.418 10.419 10.418z" clip-path="url(&quot;#a&quot;)"/></svg>