<svg xmlns="http://www.w3.org/2000/svg" width="26" height="14"><path fill="#fff" d="M22.377 8.887c.862.794 1.772 1.54 2.546 2.414.342.388.665.789.913 1.24.35.64.033 1.344-.577 1.383l-3.787-.002c-.977.076-1.757-.294-2.412-.924-.524-.503-1.01-1.039-1.514-1.56a3.53 3.53 0 00-.682-.57c-.517-.317-.966-.22-1.261.288-.301.517-.37 1.09-.4 1.666-.04.84-.31 1.062-1.205 1.1-1.915.085-3.732-.188-5.42-1.098-1.488-.803-2.643-1.936-3.647-3.218C2.975 7.108 1.477 4.364.13 1.543-.172.907.05.566.794.554 2.03.531 3.265.533 4.502.552c.503.007.835.279 1.029.726.669 1.55 1.487 3.023 2.513 4.39.274.363.553.727.95.983.439.283.773.19.98-.272a2.9 2.9 0 00.218-.92c.098-1.078.11-2.153-.06-3.227-.106-.67-.507-1.104-1.216-1.23C8.554.936 8.608.81 8.783.614 9.087.279 9.373.07 9.945.07h4.28c.674.125.824.41.916 1.05l.004 4.481c-.007.247.131.982.604 1.145.378.117.628-.168.855-.395 1.025-1.025 1.756-2.236 2.41-3.49.29-.553.54-1.125.78-1.698.18-.425.46-.634.968-.624l4.12.003c.123 0 .246.002.365.02.694.112.884.394.67 1.033-.338 1.002-.996 1.838-1.638 2.677-.687.896-1.422 1.761-2.104 2.662-.626.823-.576 1.238.202 1.953z"/></svg>